<?xml version="1.0" standalone="no"?>
<!DOCTYPE svg PUBLIC "-//W3C//DTD SVG 20010904//EN"
 "http://www.w3.org/TR/2001/REC-SVG-20010904/DTD/svg10.dtd">
<svg version="1.0" xmlns="http://www.w3.org/2000/svg"
 width="1080.000000pt" height="1080.000000pt" viewBox="0 0 1080.000000 1080.000000"
 preserveAspectRatio="xMidYMid meet">
<metadata>
Created by potrace 1.11, written by Peter Selinger 2001-2013
</metadata>
<g transform="translate(0.000000,1080.000000) scale(0.100000,-0.100000)"
fill="#000000" stroke="none">
<path d="M5386 10177 c-16 -28 -36 -60 -44 -69 -8 -10 -11 -18 -7 -18 4 0 2
-8 -6 -17 -8 -10 -24 -35 -34 -55 -11 -21 -23 -38 -27 -38 -5 0 -7 -3 -6 -7 3
-10 -73 -146 -86 -155 -7 -5 -7 -8 -1 -8 6 0 5 -4 -2 -8 -6 -4 -13 -14 -15
-22 -2 -8 -8 -19 -15 -25 -6 -5 -29 -45 -51 -87 -22 -42 -43 -74 -46 -71 -3 4
-6 -2 -6 -12 0 -10 -6 -26 -14 -34 -8 -9 -16 -23 -18 -31 -2 -8 -11 -23 -21
-34 -10 -11 -15 -26 -13 -33 3 -7 0 -12 -7 -10 -7 1 -11 -6 -11 -15 1 -10 -4
-18 -12 -18 -8 0 -11 -6 -7 -17 4 -10 2 -14 -4 -10 -6 4 -13 -1 -16 -11 -3 -9
-22 -44 -42 -77 -19 -33 -40 -72 -46 -87 -6 -16 -15 -28 -21 -28 -5 0 -6 -5
-3 -10 3 -6 0 -13 -9 -16 -8 -3 -12 -12 -9 -20 3 -9 0 -14 -8 -12 -8 2 -13 -3
-11 -11 1 -7 -2 -19 -8 -25 -5 -7 -7 -16 -3 -19 3 -4 -1 -7 -10 -7 -9 0 -17
-7 -17 -16 0 -8 -4 -12 -10 -9 -5 3 -7 0 -4 -8 3 -8 -1 -21 -9 -29 -8 -8 -22
-30 -32 -48 -10 -19 -23 -38 -29 -42 -6 -4 -7 -8 -2 -8 5 0 2 -8 -7 -17 -8
-10 -15 -20 -15 -23 1 -3 -11 -24 -25 -47 -15 -24 -27 -46 -27 -49 0 -4 -11
-22 -26 -41 -14 -18 -22 -33 -18 -33 3 0 1 -7 -6 -15 -6 -8 -8 -20 -4 -27 4
-7 4 -10 -1 -6 -9 9 -55 -49 -55 -69 0 -7 -4 -13 -8 -13 -13 0 -33 -50 -26
-62 4 -7 2 -8 -4 -4 -7 4 -12 2 -12 -3 0 -6 0 -13 0 -16 0 -3 -8 -14 -17 -24
-29 -31 -44 -50 -42 -53 3 -5 -43 -92 -51 -98 -7 -6 -23 -39 -25 -55 0 -5 -6
-9 -13 -7 -7 1 -11 -1 -10 -5 2 -10 -13 -46 -22 -53 -3 -3 -17 -26 -30 -52
-14 -27 -29 -48 -33 -48 -5 0 -6 -4 -3 -9 3 -4 -3 -19 -14 -31 -11 -12 -17
-27 -14 -31 3 -5 0 -9 -5 -9 -6 0 -11 -7 -11 -15 0 -8 -3 -15 -8 -15 -4 0 -16
-20 -27 -44 -11 -24 -24 -42 -29 -39 -5 4 -7 -4 -4 -15 4 -12 2 -20 -2 -17 -5
3 -11 -4 -15 -15 -3 -11 -10 -20 -15 -20 -5 0 -6 -7 -3 -17 4 -11 3 -14 -5 -9
-11 6 -14 0 -11 -20 0 -4 -3 -10 -8 -13 -17 -12 -53 -71 -53 -86 0 -8 -5 -15
-10 -15 -6 0 -9 -3 -9 -7 3 -20 -2 -34 -11 -28 -5 3 -10 -1 -10 -9 0 -9 -4
-16 -9 -16 -6 0 -8 -9 -6 -20 2 -12 -2 -20 -10 -20 -8 0 -12 -6 -9 -14 3 -7
-2 -16 -11 -20 -9 -3 -13 -10 -10 -16 3 -5 1 -10 -4 -10 -6 0 -11 -7 -11 -15
0 -8 -4 -15 -9 -15 -10 0 -27 -39 -23 -52 1 -5 -5 -8 -14 -8 -8 0 -12 -4 -9
-10 3 -5 2 -10 -3 -10 -9 0 -27 -47 -24 -63 1 -4 -4 -6 -10 -5 -8 2 -12 -5
-10 -16 2 -10 -1 -15 -7 -12 -9 6 -27 -30 -23 -46 1 -5 -2 -8 -6 -8 -5 0 -17
-18 -28 -40 -10 -22 -23 -40 -27 -40 -5 0 -5 -4 -2 -10 3 -5 1 -10 -4 -10 -6
0 -11 -7 -11 -15 0 -8 -4 -15 -10 -15 -5 0 -9 -3 -8 -7 3 -16 -22 -63 -33 -63
-6 0 -9 -7 -5 -15 3 -8 0 -15 -7 -15 -13 -1 -53 -77 -51 -97 1 -7 -3 -11 -10
-10 -6 1 -10 -4 -9 -10 2 -7 -2 -13 -9 -13 -6 0 -9 -3 -5 -6 5 -6 0 -15 -30
-48 -7 -8 -9 -17 -5 -21 4 -3 -1 -11 -11 -16 -9 -6 -15 -14 -12 -20 4 -5 1 -9
-5 -9 -6 0 -8 -4 -5 -10 3 -5 -1 -10 -9 -10 -10 0 -13 -6 -10 -15 4 -8 1 -15
-7 -15 -7 0 -10 -3 -6 -6 3 -4 -1 -13 -9 -21 -8 -8 -12 -18 -9 -23 3 -4 -2
-11 -11 -14 -8 -3 -12 -10 -9 -16 3 -5 2 -10 -3 -10 -14 0 -73 -116 -64 -125
4 -5 2 -5 -5 -1 -7 4 -14 -3 -19 -16 -3 -12 -13 -28 -20 -36 -8 -7 -14 -19
-14 -26 0 -8 -7 -19 -15 -26 -8 -7 -12 -16 -9 -21 3 -5 -2 -12 -11 -15 -9 -4
-14 -13 -11 -20 3 -8 0 -14 -7 -14 -7 0 -13 -9 -14 -21 -1 -12 -10 -27 -19
-33 -9 -7 -14 -18 -10 -25 5 -7 2 -10 -5 -9 -7 2 -13 -1 -14 -7 0 -9 -8 -23
-43 -80 -6 -11 -22 -40 -33 -63 -12 -24 -28 -46 -35 -49 -7 -2 -10 -12 -7 -20
5 -12 3 -14 -7 -8 -10 6 -12 3 -7 -14 4 -17 2 -21 -8 -17 -9 3 -12 0 -8 -10 3
-9 -4 -24 -16 -36 -13 -11 -20 -27 -17 -35 5 -11 2 -13 -9 -9 -9 3 -13 2 -10
-3 3 -5 1 -12 -5 -16 -6 -4 -8 -11 -5 -16 4 -5 2 -9 -4 -9 -11 0 -47 -60 -43
-72 1 -5 -3 -8 -9 -8 -6 0 -9 -7 -5 -15 3 -9 0 -15 -10 -15 -8 0 -12 -4 -9
-10 3 -5 1 -10 -5 -10 -7 0 -9 -7 -6 -15 3 -9 0 -18 -7 -21 -7 -2 -24 -26 -37
-52 -14 -26 -28 -48 -32 -50 -5 -2 -8 -9 -8 -17 0 -7 -7 -18 -15 -25 -9 -7
-14 -19 -11 -27 3 -7 1 -13 -5 -13 -6 0 -7 -5 -3 -12 5 -8 2 -9 -12 -4 -10 4
-15 4 -12 0 7 -6 -38 -93 -53 -104 -4 -3 -11 -18 -14 -33 -4 -16 -14 -31 -21
-34 -8 -3 -12 -9 -9 -13 3 -4 -2 -13 -10 -20 -8 -7 -12 -16 -9 -21 3 -5 0 -9
-5 -9 -6 0 -11 -7 -11 -15 0 -8 -5 -15 -11 -15 -5 0 -8 -4 -4 -9 3 -6 -3 -14
-12 -20 -10 -6 -14 -11 -9 -11 5 0 3 -7 -4 -15 -7 -8 -9 -15 -6 -15 4 0 1 -7
-6 -15 -33 -36 -39 -46 -33 -55 3 -6 -2 -10 -11 -10 -10 0 -14 -3 -11 -6 3 -4
-3 -18 -13 -32 -11 -13 -20 -29 -20 -34 0 -5 -7 -16 -15 -25 -8 -8 -13 -19
-10 -24 4 -5 1 -9 -5 -9 -6 0 -8 -5 -5 -10 3 -6 -1 -13 -9 -16 -9 -3 -14 -10
-11 -14 3 -4 -2 -13 -10 -20 -8 -7 -15 -17 -15 -23 0 -5 -8 -16 -17 -23 -13
-10 -14 -13 -4 -14 9 0 7 -6 -8 -19 -12 -11 -23 -23 -23 -28 -1 -17 -21 -53
-29 -53 -5 0 -5 -7 -2 -17 4 -11 3 -14 -5 -9 -11 6 -13 2 -12 -20 1 -3 -9 -14
-22 -25 -19 -16 -20 -18 -4 -12 13 4 8 -4 -14 -25 -18 -18 -27 -32 -20 -32 8
0 5 -7 -7 -17 -11 -10 -18 -24 -15 -32 3 -8 0 -11 -7 -7 -6 4 -11 0 -11 -9 0
-9 -11 -31 -24 -48 -13 -18 -27 -42 -31 -55 -3 -12 -10 -20 -15 -17 -4 3 -6
-5 -3 -17 3 -13 2 -20 -2 -15 -5 4 -17 -11 -27 -33 -10 -22 -23 -40 -29 -40
-6 0 -8 -4 -4 -9 3 -6 0 -13 -7 -18 -7 -4 -28 -37 -46 -73 -43 -85 -54 -103
-70 -113 -7 -5 -10 -12 -7 -18 4 -5 2 -9 -4 -9 -6 0 -8 -6 -5 -14 3 -7 -2 -16
-11 -20 -9 -3 -13 -10 -10 -16 3 -5 3 -10 -2 -10 -4 0 -14 -15 -22 -32 -8 -18
-17 -35 -20 -38 -12 -10 -81 -128 -81 -138 0 -5 -7 -15 -15 -22 -8 -7 -12 -16
-9 -21 3 -5 -2 -12 -10 -15 -9 -3 -13 -10 -10 -15 3 -5 0 -9 -5 -9 -6 0 -11
-7 -11 -15 0 -8 -5 -15 -11 -15 -5 0 -8 -4 -5 -9 3 -5 -1 -14 -9 -21 -8 -7
-12 -16 -9 -21 3 -5 0 -9 -6 -9 -6 0 -8 -4 -5 -10 3 -5 1 -10 -5 -10 -6 0 -8
-4 -5 -10 3 -5 0 -10 -7 -10 -8 0 -14 -9 -15 -19 -1 -11 -11 -29 -22 -40 -12
-12 -21 -31 -21 -43 0 -12 -3 -18 -7 -15 -9 9 -32 -24 -33 -46 0 -10 -4 -15
-10 -12 -6 3 -7 -1 -4 -9 3 -9 1 -16 -6 -16 -6 0 -8 -4 -5 -10 3 -5 1 -10 -5
-10 -6 0 -8 -4 -5 -10 3 -5 2 -10 -3 -10 -6 0 -13 -11 -16 -25 -4 -14 -11 -23
-16 -20 -9 6 -14 -8 -11 -27 0 -5 -4 -8 -10 -8 -5 0 -7 -4 -4 -10 3 -5 1 -10
-4 -10 -6 0 -11 -9 -11 -19 0 -10 -7 -21 -15 -25 -8 -3 -15 -13 -15 -21 0 -10
-5 -13 -12 -9 -10 5 -10 4 -1 -6 9 -10 7 -17 -13 -33 -14 -10 -23 -24 -21 -30
1 -5 -7 -21 -20 -35 -12 -13 -20 -28 -17 -33 3 -5 0 -9 -6 -9 -7 0 -10 -7 -6
-15 3 -9 0 -15 -10 -15 -11 0 -14 -6 -10 -16 4 -10 2 -13 -6 -8 -8 5 -9 2 -5
-10 4 -10 3 -15 -3 -11 -6 3 -10 1 -10 -5 0 -6 -11 -27 -25 -47 -13 -20 -22
-40 -20 -44 3 -4 -2 -9 -10 -13 -8 -3 -15 -15 -15 -26 0 -11 -4 -20 -10 -20
-5 0 -10 -7 -10 -15 0 -8 -5 -15 -11 -15 -6 0 -8 -7 -5 -16 4 -11 2 -15 -7
-11 -8 3 -14 -3 -14 -16 -1 -11 -6 -23 -10 -26 -15 -11 -73 -112 -60 -106 6 4
4 0 -5 -8 -10 -8 -15 -17 -11 -20 3 -4 0 -7 -7 -7 -7 0 -11 -3 -7 -6 3 -3 -3
-15 -14 -27 -10 -11 -19 -27 -19 -34 0 -7 -5 -13 -10 -13 -6 0 -9 -3 -9 -7 4
-22 -2 -33 -13 -27 -8 5 -9 2 -5 -9 3 -10 2 -17 -3 -17 -6 0 -10 -7 -10 -15 0
-8 -9 -24 -19 -34 -10 -10 -22 -28 -26 -40 -3 -12 -11 -21 -16 -21 -5 0 -8 -3
-7 -7 3 -13 -25 -63 -34 -63 -5 0 -6 -4 -3 -10 3 -5 1 -10 -5 -10 -6 0 -8 -4
-5 -10 3 -5 1 -10 -5 -10 -7 0 -9 -7 -6 -16 3 -8 2 -13 -3 -10 -9 6 -26 -22
-22 -37 0 -4 -6 -10 -14 -13 -8 -3 -13 -9 -10 -14 2 -4 -4 -16 -15 -27 -10
-12 -16 -24 -12 -28 4 -3 -1 -11 -11 -16 -9 -6 -15 -14 -12 -20 4 -5 1 -9 -5
-9 -7 0 -10 -7 -6 -15 3 -8 1 -15 -3 -15 -15 0 -53 -69 -45 -81 5 -8 3 -9 -5
-5 -8 5 -14 0 -18 -13 -3 -12 -10 -21 -15 -21 -6 0 -8 -7 -4 -15 3 -10 -1 -15
-12 -15 -15 0 -15 -2 -2 -10 13 -8 13 -10 -1 -10 -9 0 -20 -7 -23 -16 -3 -9
-2 -12 5 -8 6 3 -6 -16 -25 -43 -20 -28 -33 -53 -29 -56 3 -4 1 -7 -5 -7 -7 0
-11 -6 -10 -12 2 -7 -3 -12 -10 -10 -8 1 -11 -2 -7 -8 3 -6 -1 -17 -9 -26 -9
-9 -14 -20 -11 -25 4 -5 1 -9 -5 -9 -7 0 -10 -7 -7 -14 4 -11 1 -13 -10 -9
-11 4 -14 2 -9 -5 4 -7 2 -12 -4 -12 -6 0 -9 -4 -5 -9 3 -5 1 -12 -5 -16 -6
-4 -7 -11 -4 -17 4 -6 3 -8 -3 -5 -9 6 -56 -74 -53 -89 1 -4 -2 -10 -7 -13
-19 -14 -47 -54 -33 -47 11 6 11 4 -1 -6 -9 -7 -19 -23 -23 -36 -4 -12 -12
-22 -17 -22 -5 0 -8 -3 -8 -7 3 -21 -2 -33 -16 -33 -8 0 -14 -3 -13 -7 3 -16
-15 -63 -24 -63 -6 0 -7 -7 -4 -16 5 -12 2 -15 -9 -10 -9 3 -13 2 -10 -4 3 -6
2 -10 -4 -10 -6 0 -8 -6 -5 -14 3 -8 -3 -19 -15 -26 -12 -6 -21 -14 -21 -18 0
-4 135 -7 300 -7 193 0 300 4 300 10 0 7 3 7 8 0 4 -6 148 -10 395 -10 351 0
387 2 387 16 0 9 7 22 15 29 8 7 12 16 10 21 -3 4 3 12 12 18 11 6 13 11 5 11
-8 0 -2 11 13 27 14 15 25 33 25 39 0 7 7 15 16 18 10 4 14 14 11 26 -3 13 -1
18 6 13 7 -4 8 0 4 11 -4 9 -3 15 1 12 12 -7 44 52 36 66 -4 7 -3 8 5 4 6 -4
14 0 18 11 3 10 15 30 25 46 11 15 16 27 11 27 -4 0 -3 4 3 8 18 11 55 82 48
93 -3 5 -2 8 3 7 4 -2 10 2 12 7 3 6 9 15 15 22 29 33 34 41 29 47 -4 3 -1 6
6 6 7 0 9 5 6 10 -3 6 -1 10 5 10 6 0 8 5 5 10 -3 6 -1 10 4 10 6 0 11 7 11
16 0 8 5 12 10 9 6 -3 10 -2 10 4 0 5 -6 12 -12 14 -8 3 -6 6 5 6 9 1 17 6 17
13 0 6 12 27 27 46 15 20 20 32 12 27 -8 -4 -5 3 7 16 21 24 33 48 30 61 0 4
8 14 19 23 11 9 13 13 5 9 -8 -4 -5 3 8 15 12 12 22 26 22 31 0 5 10 19 22 31
13 12 16 18 8 14 -11 -6 -10 -3 2 12 10 11 18 25 18 31 0 7 4 12 8 12 4 0 14
16 21 35 7 19 17 35 22 35 6 0 7 4 4 10 -3 6 -1 10 4 10 6 0 11 7 11 15 0 7 7
18 16 23 9 5 15 12 14 16 -4 11 33 79 50 94 13 12 13 13 0 6 -11 -6 -10 -2 2
13 10 11 18 24 18 30 0 6 7 13 15 17 8 3 15 15 15 26 0 11 7 23 15 26 8 4 13
10 10 14 -3 5 2 13 11 18 9 5 16 13 16 18 1 21 18 54 28 54 6 0 8 5 5 10 -3 6
-1 10 5 10 6 0 9 4 6 9 -3 5 1 14 9 21 8 7 15 19 15 27 0 7 6 16 14 19 8 3 12
12 9 20 -3 8 0 14 7 14 7 0 10 7 6 16 -3 8 -2 13 3 10 9 -6 26 22 23 37 -1 4
3 7 9 7 5 0 7 5 4 10 -3 6 1 13 9 16 9 3 14 10 11 14 -3 4 2 11 11 14 8 3 12
10 9 16 -3 6 1 13 9 16 9 3 16 14 16 24 0 9 9 27 20 40 11 13 20 29 20 35 0 7
7 18 15 25 9 7 13 15 11 17 -3 3 4 14 14 26 11 11 17 24 14 29 -3 4 0 8 6 8 7
0 9 7 6 16 -3 8 -2 13 3 10 4 -3 20 19 35 49 15 30 31 55 36 55 6 0 10 9 10
20 0 11 5 20 10 20 6 0 10 7 10 15 0 8 4 15 9 15 10 0 32 55 25 64 -2 3 -1 4
2 1 9 -6 38 24 31 32 -3 3 1 12 9 20 8 8 12 19 9 24 -4 5 1 9 9 9 9 0 15 3 14
8 -3 10 32 75 46 84 6 4 7 8 3 8 -5 0 0 12 10 28 37 56 44 67 49 85 4 9 10 17
14 17 5 0 12 9 15 21 6 19 13 20 136 17 81 -2 129 1 129 7 0 7 3 7 8 0 4 -6
86 -10 210 -10 112 0 206 -3 208 -7 3 -4 16 -3 29 2 14 5 25 6 25 1 0 -11 19
-9 39 3 11 7 12 6 6 -5 -7 -11 -6 -12 7 -2 8 7 18 10 22 6 4 -4 270 -7 591 -8
321 0 587 -4 591 -8 4 -4 2 -7 -4 -7 -7 0 -12 -7 -12 -15 0 -8 -4 -15 -9 -15
-5 0 -13 -13 -19 -28 -5 -16 -17 -36 -26 -45 -10 -9 -19 -27 -21 -39 -3 -13
-12 -29 -22 -35 -9 -7 -13 -13 -9 -13 4 0 -3 -15 -16 -32 -13 -18 -22 -34 -21
-35 2 -2 -8 -20 -20 -40 -12 -21 -21 -41 -19 -45 1 -5 -2 -8 -8 -8 -5 0 -10
-7 -10 -15 0 -8 -4 -15 -10 -15 -5 0 -10 -5 -10 -10 0 -6 -16 -36 -35 -66 -19
-30 -35 -59 -35 -64 0 -6 -5 -10 -12 -10 -6 0 -8 -3 -5 -6 4 -4 -2 -19 -13
-34 -11 -16 -20 -32 -20 -38 0 -5 -7 -15 -15 -22 -8 -7 -15 -21 -15 -32 0 -12
-4 -17 -12 -12 -8 5 -9 2 -5 -9 3 -10 2 -17 -3 -17 -6 0 -10 -7 -10 -15 0 -8
-4 -15 -9 -15 -9 0 -27 -40 -22 -48 1 -2 -6 -10 -16 -18 -10 -7 -14 -14 -9
-14 5 0 -1 -8 -12 -19 -12 -10 -22 -25 -22 -33 0 -9 -6 -21 -14 -27 -8 -7 -17
-23 -20 -36 -4 -14 -11 -25 -17 -25 -6 0 -7 -5 -4 -10 3 -5 1 -10 -5 -10 -6 0
-8 -4 -5 -10 3 -5 2 -10 -4 -10 -5 0 -15 -16 -22 -34 -7 -19 -17 -32 -23 -29
-5 4 -7 -1 -3 -10 3 -10 2 -17 -3 -17 -6 0 -10 -6 -10 -14 0 -7 -7 -19 -15
-26 -8 -7 -12 -16 -9 -21 3 -5 2 -9 -3 -9 -12 0 -33 -51 -26 -64 3 -6 3 -8 -2
-4 -8 8 -45 -33 -45 -51 0 -6 -5 -11 -11 -11 -5 0 -7 -5 -4 -10 3 -6 1 -10 -4
-10 -6 0 -11 -7 -11 -15 0 -8 -5 -15 -11 -15 -5 0 -8 -4 -5 -9 3 -4 -6 -23
-19 -41 -14 -19 -25 -39 -25 -46 0 -6 -7 -17 -15 -24 -8 -7 -15 -20 -15 -30 0
-10 -6 -20 -14 -23 -8 -3 -17 -19 -21 -35 -3 -17 -15 -38 -25 -47 -11 -10 -17
-22 -14 -26 3 -5 0 -9 -5 -9 -6 0 -11 -9 -11 -21 0 -13 -4 -18 -12 -13 -8 5
-9 2 -5 -9 4 -11 1 -17 -8 -17 -8 0 -15 -9 -15 -19 0 -11 -4 -23 -10 -26 -5
-3 -31 -45 -57 -93 -25 -48 -50 -89 -54 -92 -3 -3 -9 -15 -13 -27 -4 -13 -14
-30 -22 -38 -9 -9 -11 -15 -4 -15 6 0 8 -5 5 -10 -4 -6 -11 -8 -16 -5 -8 6
-13 -8 -10 -27 0 -5 -3 -8 -8 -8 -5 0 -14 -14 -21 -30 -7 -17 -16 -30 -21 -30
-5 0 -9 -9 -9 -21 0 -11 -4 -17 -10 -14 -6 3 -7 -1 -4 -9 3 -9 2 -16 -3 -16
-5 0 -20 -22 -34 -50 -13 -27 -27 -50 -31 -50 -5 0 -8 -7 -8 -15 0 -8 -5 -15
-11 -15 -5 0 -8 -4 -4 -9 3 -5 -1 -16 -9 -24 -8 -8 -12 -17 -9 -21 4 -3 2 -6
-3 -6 -6 0 -16 -16 -24 -35 -8 -19 -18 -35 -24 -35 -5 0 -7 -3 -3 -6 3 -4 -1
-13 -9 -21 -8 -8 -12 -19 -9 -24 4 -5 -1 -9 -9 -9 -10 0 -13 -6 -10 -15 4 -8
1 -15 -6 -15 -6 0 -9 -4 -6 -9 4 -5 0 -11 -6 -14 -7 -2 -10 -8 -6 -12 6 -6
269 -11 293 -5 6 1 15 2 20 1 14 -3 1568 -4 1580 -1 6 1 13 2 18 0 10 -2 290
-3 302 0 6 1 15 2 20 1 14 -3 1568 -4 1580 -1 6 1 13 2 18 0 10 -2 290 -3 302
0 6 1 15 2 20 1 14 -3 1568 -4 1580 -1 6 1 13 2 18 0 10 -2 290 -3 302 0 6 1
15 2 20 0 6 -1 253 -2 551 -3 478 -2 540 0 539 13 0 9 -4 21 -8 27 -4 6 -3 14
2 18 12 7 10 45 -2 45 -4 0 -6 3 -4 8 7 10 -49 123 -56 115 -4 -3 -7 2 -7 13
0 11 -7 29 -15 41 -13 18 -45 77 -102 186 -8 15 -19 24 -25 20 -7 -4 -9 0 -5
10 3 10 2 17 -4 17 -6 0 -7 5 -3 12 5 8 2 9 -11 4 -15 -5 -16 -4 -5 9 11 14 7
19 -12 16 -4 0 -4 7 -1 16 5 12 3 14 -7 8 -10 -6 -12 -4 -7 8 3 8 -1 21 -8 27
-8 7 -12 16 -9 21 3 5 1 9 -4 9 -5 0 -22 26 -38 57 -15 32 -30 60 -33 63 -5 4
-26 42 -78 143 -8 15 -18 27 -22 27 -5 0 -11 13 -14 30 -4 16 -15 38 -25 48
-11 11 -25 33 -33 50 -8 18 -17 32 -20 32 -4 0 -10 11 -13 25 -4 14 -11 25
-16 25 -6 0 -10 9 -10 20 0 11 -3 20 -8 20 -4 0 -18 25 -31 55 -13 30 -27 55
-30 55 -3 0 -17 24 -31 53 -14 28 -28 54 -31 57 -4 3 -9 15 -13 28 -4 12 -11
20 -16 17 -4 -3 -13 9 -19 25 -5 17 -7 30 -4 30 3 0 -4 9 -16 19 -13 11 -20
24 -17 29 3 6 -1 12 -9 16 -8 3 -15 12 -15 21 0 8 -5 15 -11 15 -6 0 -9 7 -5
15 3 8 1 15 -5 15 -6 0 -8 4 -5 9 3 5 -1 12 -10 15 -8 3 -12 10 -9 16 3 5 1
10 -4 10 -6 0 -11 4 -11 9 0 5 -15 35 -33 67 l-33 59 -662 1 c-365 0 -665 -3
-668 -8 -3 -4 -1 -8 4 -8 4 0 14 -16 22 -35 8 -19 17 -35 22 -35 4 0 8 -7 8
-15 0 -8 5 -15 11 -15 5 0 7 -5 4 -10 -3 -6 1 -13 9 -16 9 -3 13 -11 10 -16
-4 -6 -2 -13 3 -17 9 -5 29 -40 92 -156 9 -16 19 -32 22 -35 4 -3 10 -16 14
-29 5 -18 9 -20 16 -10 6 10 9 8 9 -8 0 -13 4 -23 10 -23 5 0 7 -6 4 -13 -2
-7 5 -23 16 -35 12 -12 18 -27 15 -32 -3 -6 -2 -10 4 -10 5 0 16 -12 24 -27
52 -100 63 -119 72 -125 6 -4 6 -8 2 -8 -5 0 -1 -7 7 -16 9 -8 16 -21 16 -29
0 -7 4 -15 10 -17 5 -1 11 -14 12 -27 l3 -24 -325 2 c-179 1 -409 3 -513 4
-119 1 -187 -2 -187 -8 0 -7 -3 -7 -8 0 -4 7 -366 10 -1049 10 -587 0 -1043 4
-1043 9 0 5 -6 4 -13 -3 -10 -8 -17 -7 -25 1 -7 7 -12 8 -12 2 0 -5 -18 -9
-40 -9 -22 0 -40 3 -40 8 0 4 -6 5 -12 0 -17 -10 -39 -10 -62 0 -12 6 -16 6
-12 -2 5 -7 0 -8 -13 -3 -11 4 -20 10 -20 14 1 20 12 48 19 48 7 0 16 22 18
44 0 5 4 12 9 15 13 10 33 50 33 68 0 9 3 14 6 11 3 -3 42 67 87 156 45 88 84
163 87 166 3 3 20 38 39 78 19 39 38 72 43 72 4 0 8 7 8 15 0 9 7 27 16 40 9
13 12 30 8 36 -4 7 -3 9 3 6 5 -3 23 21 39 55 16 34 35 68 43 75 7 8 14 25 15
38 0 14 6 25 13 25 7 0 10 7 6 17 -4 11 -3 14 5 9 7 -4 13 -2 13 3 1 6 3 14 4
19 2 4 6 17 10 30 4 12 11 22 16 22 5 0 5 7 2 17 -4 11 -3 14 5 9 7 -4 12 -2
12 4 0 6 7 18 15 26 8 8 11 22 8 31 -5 12 -3 14 7 8 8 -5 11 -3 8 6 -3 8 4 22
15 31 11 10 17 24 14 32 -3 8 1 17 10 20 9 4 13 13 9 22 -4 10 -2 13 6 8 8 -5
9 -2 5 9 -4 11 -1 17 7 17 8 0 17 10 21 23 4 12 8 25 10 30 6 18 7 22 6 30 0
4 3 6 8 5 5 -2 10 0 10 4 1 4 20 43 43 85 23 43 46 88 52 100 6 13 15 23 19
23 5 0 6 4 3 9 -3 5 4 20 15 35 11 14 18 26 15 26 -6 0 50 106 67 128 5 6 6
12 1 12 -4 0 3 11 16 25 13 14 20 25 16 25 -3 0 5 20 19 45 14 25 25 52 25 59
0 8 7 17 16 20 9 4 14 9 11 12 -3 3 9 31 26 62 18 32 48 89 67 127 19 39 39
73 44 76 5 4 5 13 1 20 -5 8 -4 11 0 6 8 -6 35 42 34 60 -1 3 3 9 8 12 16 12
44 71 38 81 -4 6 -1 9 7 8 7 -2 12 3 11 10 -2 6 1 12 6 12 8 0 24 37 22 53 -1
4 4 7 10 7 5 0 7 5 4 10 -3 5 -1 10 4 10 6 0 11 6 11 14 0 8 6 21 13 28 6 7
28 45 47 83 19 39 38 72 43 73 4 2 5 8 1 13 -3 5 0 9 7 9 7 0 10 3 6 6 -3 3
10 32 29 64 19 32 43 78 54 102 11 24 30 61 43 82 21 37 26 39 69 39 25 0 51
-4 57 -7 6 -4 11 -2 11 4 0 6 10 8 23 5 12 -3 31 -6 42 -6 11 1 193 3 405 5
673 7 720 8 720 12 0 10 -33 69 -42 75 -5 3 -9 8 -8 10 5 10 -24 58 -31 53 -5
-3 -6 3 -2 12 5 13 3 15 -7 9 -10 -6 -12 -4 -7 8 3 9 0 18 -9 21 -8 3 -13 9
-13 13 3 14 -14 48 -28 56 -7 5 -11 12 -8 18 4 5 1 9 -4 9 -6 0 -11 7 -11 15
0 8 -3 15 -8 15 -4 0 -15 17 -24 38 -10 20 -33 64 -53 97 -19 33 -42 76 -51
95 -9 19 -25 43 -35 53 -10 10 -19 26 -19 35 0 9 -11 30 -25 45 -14 15 -22 27
-18 27 4 0 0 7 -11 15 -10 7 -15 18 -11 24 3 6 1 11 -4 11 -6 0 -11 5 -11 11
0 6 -9 24 -21 40 -11 16 -17 29 -12 29 4 0 4 4 -2 8 -12 9 -44 61 -52 85 -3 9
-9 17 -13 17 -4 0 -11 11 -14 25 -4 14 -11 23 -15 20 -5 -3 -7 4 -4 15 4 16 2
19 -12 14 -14 -6 -16 -3 -10 14 4 13 2 22 -4 22 -6 0 -11 7 -11 16 0 8 -4 12
-10 9 -5 -3 -10 1 -10 9 0 9 -5 16 -11 16 -5 0 -8 4 -4 9 3 5 -2 16 -10 25 -9
8 -17 19 -18 23 -1 4 -6 7 -10 5 -5 -1 -6 2 -2 7 3 6 -2 25 -12 43 -9 18 -16
36 -15 41 1 4 -2 7 -6 7 -5 0 -17 18 -28 40 -10 22 -23 40 -27 40 -5 0 -5 5
-2 10 3 6 1 10 -4 10 -6 0 -11 7 -11 15 0 8 -5 15 -11 15 -5 0 -7 5 -4 10 3 6
1 10 -5 10 -6 0 -8 5 -5 10 3 6 1 10 -5 10 -6 0 -8 5 -5 10 3 6 -1 10 -10 10
-11 0 -15 5 -12 14 3 8 -3 23 -14 35 -11 12 -25 35 -31 51 -5 17 -14 27 -19
24 -5 -3 -8 -2 -7 3 3 8 -31 82 -42 93 -3 3 -16 25 -29 50 -13 25 -37 64 -53
88 -15 24 -26 48 -23 53 4 5 -1 9 -10 9 -9 0 -14 4 -11 9 3 5 -1 14 -9 21 -8
7 -12 16 -9 21 3 5 -2 9 -10 9 -9 0 -13 6 -10 13 3 8 -2 20 -11 27 -8 7 -15
19 -15 26 0 8 -5 14 -11 14 -5 0 -8 4 -4 9 3 5 0 15 -7 23 -7 7 -24 35 -38 61
-14 27 -28 51 -32 53 -9 6 -83 -118 -80 -133 1 -6 -7 -18 -18 -26 -11 -7 -17
-17 -14 -20 4 -4 0 -9 -9 -13 -9 -3 -13 -12 -10 -20 3 -8 -1 -14 -8 -14 -7 0
-9 -3 -6 -6 4 -4 -3 -15 -15 -25 -11 -11 -18 -19 -13 -19 4 0 2 -7 -5 -15 -7
-8 -9 -15 -4 -15 4 0 1 -6 -8 -12 -8 -7 -30 -40 -48 -73 -17 -33 -36 -65 -41
-71 -5 -6 -6 -14 -2 -17 3 -4 1 -7 -5 -7 -7 0 -12 -7 -12 -15 0 -8 -4 -15 -10
-15 -5 0 -9 -3 -9 -7 3 -20 -2 -34 -11 -28 -6 3 -7 -1 -4 -9 3 -9 2 -16 -3
-16 -5 0 -20 -22 -34 -50 -13 -27 -27 -50 -30 -50 -4 0 -10 -11 -13 -25 -4
-14 -11 -25 -16 -25 -6 0 -10 -4 -10 -9 0 -5 -20 -43 -45 -85 -24 -42 -43 -76
-40 -76 3 0 -3 -9 -13 -20 -9 -12 -18 -24 -18 -28 -5 -26 -18 -52 -26 -52 -5
0 -7 -4 -4 -8 3 -5 -4 -14 -14 -22 -10 -8 -17 -17 -14 -22 3 -4 0 -8 -6 -8 -6
0 -8 -5 -5 -10 3 -6 -1 -13 -9 -16 -9 -3 -14 -10 -11 -14 3 -5 1 -11 -5 -15
-6 -4 -8 -11 -5 -16 4 -5 -1 -12 -9 -15 -9 -3 -16 -12 -16 -19 0 -7 -7 -18
-15 -25 -8 -7 -12 -16 -9 -21 3 -5 0 -9 -5 -9 -6 0 -11 -7 -11 -15 0 -8 -4
-15 -9 -15 -7 0 -19 -28 -19 -47 0 -3 -5 -9 -10 -12 -6 -3 -12 -13 -14 -21 -2
-8 -11 -23 -20 -34 -10 -11 -18 -26 -18 -33 0 -7 -4 -13 -10 -13 -5 0 -6 -7
-3 -17 4 -11 3 -14 -5 -9 -11 6 -17 -5 -13 -26 0 -5 -4 -8 -9 -8 -6 0 -10 -7
-10 -15 0 -8 -5 -15 -12 -15 -6 0 -8 -3 -5 -6 4 -4 -5 -20 -18 -36 -14 -16
-23 -34 -19 -39 3 -5 1 -9 -5 -9 -5 0 -19 -19 -31 -42 -12 -24 -29 -56 -39
-73 -10 -16 -16 -33 -14 -37 2 -5 0 -8 -6 -8 -6 0 -18 -17 -28 -37 -9 -21 -24
-43 -32 -49 -8 -6 -11 -18 -8 -28 4 -10 1 -16 -9 -16 -8 0 -13 -4 -9 -9 3 -5
-1 -16 -9 -24 -8 -8 -12 -17 -9 -21 3 -3 -2 -8 -11 -12 -9 -3 -13 -10 -10 -15
3 -5 0 -9 -5 -9 -6 0 -11 -5 -11 -11 0 -6 -14 -31 -32 -56 -17 -25 -25 -42
-17 -38 14 9 -18 -34 -36 -47 -5 -4 -7 -8 -3 -8 4 0 -6 -23 -22 -50 -17 -28
-30 -55 -30 -59 0 -5 -7 -14 -15 -21 -8 -7 -12 -16 -9 -21 3 -5 0 -9 -5 -9 -6
0 -11 -7 -11 -15 0 -8 -4 -15 -10 -15 -5 0 -10 -9 -10 -20 0 -12 -7 -20 -17
-20 -15 0 -16 -2 -3 -10 8 -5 10 -10 4 -10 -6 0 -16 -10 -23 -23 l-13 -24
-316 4 c-174 2 -330 5 -347 6 -16 1 -40 -1 -51 -4 -12 -5 -27 -3 -34 4 -10 9
-14 9 -17 -1 -3 -6 -10 -9 -16 -5 -18 11 -207 9 -207 -2 0 -7 -3 -7 -8 0 -9
12 -212 14 -212 2 0 -4 -6 -5 -12 0 -17 10 -398 10 -405 0 -2 -4 -10 -4 -16 0
-19 11 -141 10 -149 -1 -6 -8 -8 -8 -8 0 0 7 -33 10 -94 9 -83 -2 -94 0 -89
14 3 9 12 21 20 28 8 6 15 15 15 20 3 28 12 43 26 43 12 0 13 3 4 12 -14 14
-16 32 -3 24 11 -7 27 13 33 39 2 11 11 19 19 17 8 -2 11 0 7 4 -4 4 1 19 11
33 10 14 22 36 25 49 4 12 12 22 17 22 6 0 8 4 5 9 -3 5 1 14 9 21 8 7 12 16
9 21 -3 5 -1 9 5 9 5 0 13 10 17 22 3 12 13 28 20 36 8 7 12 18 9 23 -4 5 0 9
7 9 8 0 14 9 15 20 1 11 9 27 17 36 9 9 14 20 11 25 -4 5 1 9 9 9 9 0 15 3 14
8 -2 13 15 47 30 56 12 7 12 10 1 17 -11 7 -10 9 4 9 10 0 15 5 12 10 -3 6 1
13 9 16 9 3 14 10 11 14 -3 5 3 13 12 19 10 6 14 11 9 11 -5 0 -3 7 4 15 7 8
9 15 6 15 -4 0 0 7 8 16 9 8 16 22 16 30 0 9 5 12 12 8 7 -5 9 -2 6 8 -4 8 2
21 12 28 11 8 16 18 13 22 -3 5 3 16 13 23 15 11 16 14 4 15 -10 0 -8 4 7 15
11 8 24 26 27 40 4 14 12 25 19 25 8 0 7 4 -3 10 -13 9 -13 10 0 10 18 0 43
37 35 50 -4 6 0 10 7 10 7 0 21 20 31 45 11 25 23 42 28 39 5 -3 9 -2 8 3 -2
16 14 53 23 53 6 0 8 7 4 15 -3 9 0 15 9 15 8 0 14 3 13 8 -3 15 22 63 31 58
5 -4 7 2 4 12 -2 10 3 24 11 31 9 8 16 20 16 27 0 8 7 14 17 14 9 0 13 3 10 7
-4 3 -2 12 4 20 6 7 8 13 3 13 -4 0 5 13 20 29 15 16 28 32 28 35 0 17 12 46
19 46 5 0 9 7 9 15 0 8 5 15 11 15 5 0 8 4 5 9 -3 5 1 14 9 21 8 7 12 16 9 21
-3 5 0 9 6 9 6 0 8 5 5 10 -3 6 1 10 9 10 10 0 13 6 10 15 -4 8 1 17 10 21 9
3 14 10 11 14 -3 5 3 13 12 19 11 6 13 11 5 11 -7 0 -10 5 -7 10 4 6 11 7 17
4 7 -4 8 -2 4 4 -4 6 3 21 14 32 12 12 19 28 16 36 -3 8 1 14 9 14 8 0 15 5
15 11 0 6 9 24 21 40 11 16 17 29 12 29 -4 0 -3 4 3 8 14 9 79 125 76 135 -1
4 5 10 13 13 8 4 15 15 15 25 0 10 5 19 11 19 5 0 7 5 4 10 -3 6 -1 10 5 10 7
0 9 7 6 16 -3 8 -2 12 4 9 6 -3 10 1 10 10 0 8 6 18 14 21 8 3 12 12 9 20 -3
8 1 14 8 14 8 0 23 20 33 43 11 23 29 58 41 77 12 19 22 38 21 41 -1 3 12 22
27 42 15 20 24 37 20 37 -4 0 -3 4 3 8 6 4 21 27 34 51 12 25 29 51 36 59 8 7
12 18 9 23 -4 5 -2 9 3 9 5 0 22 25 38 55 16 30 33 55 38 55 5 0 3 7 -4 16
-11 12 -11 15 0 12 7 -2 22 15 34 37 12 22 24 42 29 43 4 2 7 9 7 16 0 7 14
32 31 56 17 23 25 39 17 35 -7 -5 -3 3 10 17 12 13 22 30 22 36 0 7 4 12 9 12
7 0 13 12 19 43 1 4 9 15 18 25 23 25 104 173 104 189 0 8 4 12 9 9 5 -3 12 6
15 19 4 17 11 23 19 18 8 -4 7 -1 -2 10 -12 15 -11 17 4 17 10 0 16 3 12 6 -3
4 1 13 9 21 8 8 12 18 9 23 -3 4 2 11 10 14 14 5 32 38 33 60 0 5 4 12 10 15
5 3 20 26 34 51 61 109 71 125 80 131 5 3 9 9 9 13 -1 3 5 19 13 35 9 16 12
32 8 36 -4 5 -2 5 4 2 11 -6 29 19 26 36 -1 4 2 7 6 7 9 0 66 98 67 113 0 4 5
11 10 15 6 4 19 25 30 47 11 22 22 42 26 45 6 6 16 31 17 44 0 5 7 13 16 18 9
5 14 13 11 19 -4 5 -1 9 4 9 6 0 11 7 11 15 0 8 5 15 10 15 6 0 9 10 7 23 -5
31 -28 77 -39 77 -5 0 -6 5 -3 10 3 6 1 10 -4 10 -6 0 -10 3 -9 8 1 4 -4 18
-12 32 -26 45 -58 104 -90 168 -18 34 -37 62 -42 62 -5 0 -7 4 -4 8 3 5 -6 20
-20 35 -15 16 -20 27 -12 27 8 0 9 3 3 8 -21 15 -50 56 -35 48 9 -4 8 -2 -2 7
-10 8 -18 22 -18 31 0 11 -5 14 -12 10 -8 -5 -9 -2 -5 9 3 10 3 17 -1 17 -4 0
-21 26 -37 58 -17 31 -33 59 -38 60 -4 2 -5 8 -1 13 3 5 0 9 -6 9 -6 0 -8 5
-5 10 3 6 2 10 -3 10 -5 0 -12 8 -15 18 -8 25 -39 74 -57 90 -8 7 -9 11 -3 7
9 -4 11 -1 7 10 -4 9 -12 14 -19 11 -9 -3 -11 2 -7 16 3 13 1 19 -5 15 -7 -4
-13 7 -17 28 -4 19 -11 35 -16 35 -6 0 -10 7 -10 15 0 8 -4 15 -9 15 -5 0 -13
9 -16 20 -4 12 -11 17 -18 13 -8 -4 -8 -1 1 9 10 13 10 17 -3 22 -9 3 -13 10
-10 16 3 5 2 10 -3 10 -4 0 -14 16 -22 35 -8 19 -16 35 -19 35 -4 0 -12 14
-19 30 -8 17 -17 30 -20 30 -4 0 -20 -24 -36 -53z"/>
<path d="M10710 1055 c0 -8 5 -15 10 -15 6 0 10 7 10 15 0 8 -4 15 -10 15 -5
0 -10 -7 -10 -15z"/>
</g>
</svg>
